<?xml version="1.0" encoding="UTF-8" standalone="no"?>
<!-- Created with Inkscape (http://www.inkscape.org/) -->

<svg
   xmlns:dc="http://purl.org/dc/elements/1.1/"
   xmlns:cc="http://creativecommons.org/ns#"
   xmlns:rdf="http://www.w3.org/1999/02/22-rdf-syntax-ns#"
   xmlns:svg="http://www.w3.org/2000/svg"
   xmlns="http://www.w3.org/2000/svg"
   xmlns:sodipodi="http://sodipodi.sourceforge.net/DTD/sodipodi-0.dtd"
   xmlns:inkscape="http://www.inkscape.org/namespaces/inkscape"
   width="700"
   height="700"
   viewBox="0 0 70 70.000004"
   version="1.1"
   id="svg8"
   inkscape:version="0.92.4 (5da689c313, 2019-01-14)"
   sodipodi:docname="mars-logo.svg"
   inkscape:export-filename="G:\Users\suitedoalex\sites\mars-logo-0.png"
   inkscape:export-xdpi="561.73999"
   inkscape:export-ydpi="561.73999">
   <defs
      id="defs2" />
   <sodipodi:namedview
      id="base"
      pagecolor="#ffffff"
      bordercolor="#666666"
      borderopacity="1.0"
      inkscape:pageopacity="0.0"
      inkscape:pageshadow="2"
      inkscape:zoom="0.30656934"
      inkscape:cx="-689.54128"
      inkscape:cy="349.50209"
      inkscape:document-units="px"
      inkscape:current-layer="layer1"
      showgrid="false"
      units="px"
      fit-margin-top="0"
      fit-margin-left="0"
      fit-margin-right="0"
      fit-margin-bottom="0"
      inkscape:window-width="1600"
      inkscape:window-height="837"
      inkscape:window-x="-8"
      inkscape:window-y="-8"
      inkscape:window-maximized="1" />
   <metadata
      id="metadata5">
      <rdf:RDF>
         <cc:Work
            rdf:about="">
            <dc:format>image/svg+xml</dc:format>
            <dc:type
               rdf:resource="http://purl.org/dc/dcmitype/StillImage" />
            <dc:title></dc:title>
         </cc:Work>
      </rdf:RDF>
   </metadata>
   <g
      inkscape:label="Layer 1"
      inkscape:groupmode="layer"
      id="layer1"
      transform="translate(1.3477397,123.07575)">
      <path
         style="fill:#0000a0;fill-opacity:1;stroke:none;stroke-width:0.02261874;stroke-linecap:butt;stroke-linejoin:miter;stroke-opacity:1"
         d="m 4.6915464,-80.146433 v -16.104544 c 0.3271576,0 0.608148,0.221284 0.9952246,0.633325 l 6.197535,6.197535 6.197536,-6.197535 c 0.340799,-0.353477 0.616073,-0.633325 1.040461,-0.633325 v 16.104544 H 15.77473 v -7.690372 l -3.890424,3.845186 -3.8361385,-3.845186 -0.00905,7.690372 z"
         id="path31"
         inkscape:connector-curvature="0"
         sodipodi:nodetypes="ccccccccccccc"
         inkscape:export-filename="G:\Users\suitedoalex\sites\mars-logo-4.png"
         inkscape:export-xdpi="66.296715"
         inkscape:export-ydpi="66.296715" />
      <path
         inkscape:connector-curvature="0"
         style="fill:#0000a0;fill-opacity:1;stroke:none;stroke-width:0.0090475;stroke-linecap:butt;stroke-linejoin:miter;stroke-opacity:1"
         d="m 27.816205,-96.250974 c -0.342262,0 -0.428678,0.245983 -0.686867,0.814275 l -6.631887,15.290268 h 3.573762 l 0.714788,-1.809499 h 5.410473 l 0.714788,1.809499 h 4.197897 l -6.622697,-15.290268 c -0.263334,-0.57657 -0.405393,-0.814275 -0.670257,-0.814275 z m -0.324967,7.672349 1.556098,3.817971 h -3.112197 z"
         id="path41"
         inkscape:export-filename="G:\Users\suitedoalex\sites\mars-logo-4.png"
         inkscape:export-xdpi="66.296715"
         inkscape:export-ydpi="66.296715" />
      <path
         inkscape:connector-curvature="0"
         style="fill:#0000a0;fill-opacity:1;stroke:none;stroke-width:0.0090475"
         d="m 36.493496,-96.070024 v 15.923593 h 3.799949 v -5.971347 h 0.949987 c 1.601421,0 2.251397,0.551807 2.802603,2.024549 0.657985,1.742276 0.891232,2.94477 1.08782,3.946798 h 4.29385 l -1.308176,-3.799948 c -0.523955,-1.537052 -1.202029,-2.755243 -2.442824,-3.58384 1.011577,-0.423948 2.177938,-1.86221 2.177938,-3.823978 0,-3.081596 -2.425855,-4.715827 -5.525511,-4.715827 z m 3.799949,2.804724 h 1.130937 c 1.776421,0 2.578183,0.829953 2.578183,2.151784 0,1.302369 -0.909408,2.100539 -2.306758,2.100539 h -1.402362 z"
         id="path45"
         inkscape:export-filename="G:\Users\suitedoalex\sites\mars-logo-4.png"
         inkscape:export-xdpi="66.296715"
         inkscape:export-ydpi="66.296715" />
      <path
         style="fill:#0000a0;fill-opacity:1;stroke:none;stroke-width:0.0090475"
         d="m 56.237906,-82.768081 c 1.596872,0 2.238783,-0.872423 2.238783,-1.631671 0,-2.815445 -7.724489,-1.510317 -7.724489,-7.075622 0,-1.735128 1.459546,-4.909768 5.845385,-4.909768 2.618246,0 4.560523,1.305029 5.39409,2.183867 l -2.19442,2.302017 c -0.814485,-0.837988 -1.863227,-1.55207 -3.394341,-1.55207 -1.121182,0 -1.769726,0.539809 -1.769726,1.474551 0,2.582762 7.979788,1.594604 7.979788,7.089818 0,2.44818 -1.759178,5.120602 -6.242668,5.120602 -3.126071,0 -5.025901,-1.290137 -6.101679,-2.59133 l 2.211099,-2.330988 c 0.828575,0.984612 1.837763,1.920594 3.758178,1.920594 z"
         id="path49"
         inkscape:connector-curvature="0"
         sodipodi:nodetypes="ccccccccccccc"
         inkscape:export-filename="G:\Users\suitedoalex\sites\mars-logo-4.png"
         inkscape:export-xdpi="66.296715"
         inkscape:export-ydpi="66.296715" />
   </g>
</svg>